<?xml version="1.0" encoding="utf-8"?>
<!-- Generator: Adobe Illustrator 21.0.2, SVG Export Plug-In . SVG Version: 6.00 Build 0)  -->
<svg version="1.1" id="Layer_1" xmlns="http://www.w3.org/2000/svg" xmlns:xlink="http://www.w3.org/1999/xlink" x="0px" y="0px"
	 viewBox="0 0 238 100" style="enable-background:new 0 0 238 100;" xml:space="preserve">
<style type="text/css">
	.st0{opacity:0.95;}
	.st1{fill:#82BF9D;}
	.st2{fill:none;stroke:#82BF9D;stroke-width:0.5;stroke-miterlimit:10;}
</style>
<g class="st0">
	<rect y="0" class="st1" width="238" height="100"/>
</g>
<circle class="st1" cx="15.5" cy="16.5" r="1.5"/>
<circle class="st1" cx="110" cy="31" r="2"/>
<circle class="st1" cx="49.5" cy="55.5" r="1.5"/>
<circle class="st1" cx="176.5" cy="55.5" r="1.5"/>
<circle class="st1" cx="109.5" cy="83.5" r="1.5"/>
<circle class="st1" cx="187.5" cy="8.5" r="1.5"/>
<circle class="st1" cx="216.5" cy="34.5" r="1.5"/>
<circle class="st1" cx="220.5" cy="71.5" r="2.5"/>
<circle class="st1" cx="7.5" cy="81.5" r="2.5"/>
<circle class="st1" cx="52.5" cy="17.5" r="1.5"/>
<circle class="st1" cx="72.5" cy="71.5" r="0.5"/>
<circle class="st1" cx="89" cy="37" r="1"/>
<circle class="st1" cx="147.5" cy="8.5" r="0.5"/>
<circle class="st1" cx="138" cy="49" r="2"/>
<circle class="st1" cx="166.5" cy="27.5" r="0.5"/>
<circle class="st1" cx="164.5" cy="71.5" r="0.5"/>
<circle class="st1" cx="104.5" cy="57.5" r="0.5"/>
<circle class="st1" cx="201.5" cy="92.5" r="1.5"/>
<circle class="st1" cx="45.5" cy="90.5" r="0.5"/>
<circle class="st1" cx="19" cy="42" r="1"/>
<circle class="st1" cx="90" cy="3" r="1"/>
<circle class="st1" cx="233.5" cy="-0.5" r="0.5"/>
<circle class="st1" cx="149" cy="98" r="1"/>
<line class="st2" x1="-3" y1="59" x2="138" y2="-5"/>
<line class="st2" x1="2.5" y1="-11.5" x2="166.5" y2="105.5"/>
<line class="st2" x1="151.5" y1="-2.5" x2="261.5" y2="81.5"/>
<line class="st2" x1="249.5" y1="31.5" x2="37.5" y2="-4.5"/>
<line class="st2" x1="62.5" y1="110.5" x2="225.5" y2="-4.5"/>
<line class="st2" x1="260.5" y1="45.5" x2="115.5" y2="108.5"/>
<line class="st2" x1="103.5" y1="109.5" x2="-27.5" y2="52.5"/>
<line class="st2" x1="27.5" y1="-19.5" x2="-12.5" y2="27.5"/>
<line class="st2" x1="32.5" y1="110.5" x2="95.5" y2="-29.5"/>
<line class="st2" x1="104.5" y1="-15.5" x2="253.5" y2="112.5"/>
<line class="st2" x1="174.5" y1="-20.5" x2="31.5" y2="118.5"/>
<line class="st2" x1="-25.5" y1="34.5" x2="272.5" y2="85.5"/>
<line class="st2" x1="-27.5" y1="81.5" x2="71.5" y2="-13.5"/>
<line class="st2" x1="-13.5" y1="-15.5" x2="34.5" y2="113.5"/>
<line class="st2" x1="15.5" y1="110.5" x2="-4.5" y2="97.5"/>
<line class="st2" x1="63.5" y1="-25.5" x2="107.5" y2="111.5"/>
<line class="st2" x1="113.5" y1="111.5" x2="132.5" y2="-35.5"/>
<line class="st2" x1="146.5" y1="-34.5" x2="185.5" y2="109.5"/>
<line class="st2" x1="208.5" y1="108.5" x2="233.5" y2="-9.5"/>
<circle class="st2" cx="156.5" cy="81.5" r="1"/>
<circle class="st2" cx="32.5" cy="68.5" r="1"/>
<circle class="st2" cx="223.5" cy="5.5" r="1"/>
<circle class="st1" cx="118.5" cy="23.5" r="2"/>
<circle class="st2" cx="41.5" cy="32.5" r="1"/>
<circle class="st2" cx="140" cy="36" r="1.5"/>
<circle class="st2" cx="57" cy="84" r="1.5"/>
<circle class="st2" cx="4.5" cy="97.5" r="3"/>
<circle class="st2" cx="195.5" cy="38.5" r="1"/>
<circle class="st2" cx="194.5" cy="77.5" r="2"/>
<circle class="st2" cx="242.5" cy="15.5" r="5"/>
<circle class="st1" cx="101.5" cy="69.5" r="1.5"/>
<circle class="st1" cx="134.5" cy="75.5" r="1.5"/>
<circle class="st1" cx="188" cy="92" r="2"/>
<circle class="st1" cx="186" cy="29" r="2"/>
<circle class="st1" cx="161" cy="10" r="3"/>
<circle class="st1" cx="61" cy="41" r="2"/>
<circle class="st1" cx="75" cy="63" r="3"/>
<circle class="st1" cx="90.5" cy="89.5" r="1.5"/>
<circle class="st1" cx="201.5" cy="52.5" r="1.5"/>
<circle class="st1" cx="19.5" cy="91.5" r="2.5"/>
<circle class="st1" cx="29" cy="49" r="1"/>
<circle class="st1" cx="30.5" cy="12.5" r="2.5"/>
<circle class="st1" cx="70" cy="9" r="1"/>
<circle class="st1" cx="100" cy="11" r="2"/>
<circle class="st1" cx="129" cy="93" r="1"/>
<circle class="st1" cx="143" cy="20" r="1"/>
<circle class="st1" cx="162" cy="61" r="1"/>
<circle class="st1" cx="219.5" cy="9.5" r="1.5"/>
<circle class="st1" cx="235" cy="87" r="2"/>
</svg>
