<?xml version="1.0" encoding="utf-8"?>
<!-- Generator: Adobe Illustrator 21.0.2, SVG Export Plug-In . SVG Version: 6.00 Build 0)  -->
<svg version="1.1" id="Layer_1" xmlns="http://www.w3.org/2000/svg" xmlns:xlink="http://www.w3.org/1999/xlink" x="0px" y="0px"
	 viewBox="0 0 100 100" style="enable-background:new 0 0 100 100;" xml:space="preserve">
<style type="text/css">
	.st0{fill:#82BF9D;}
</style>
<g>
	<path class="st0" d="M79.7,64.2c-1.1,4.8-2.1,9.9-3.1,15.3c-1.7,0-4.8,0.4-9.3,1.2c-5.8,1-10,1.6-12.8,1.6c-6.8,0-12.8-1.4-18-4.1
		c-5.2-2.7-9.2-6.6-12.1-11.6c-2.9-5-4.3-10.6-4.3-16.8c0-6.1,1.5-11.6,4.6-16.8c3-5.1,7.2-9.1,12.6-11.9c5.3-2.9,11.4-4.3,18-4.3
		c2.8,0,6.6,0.3,11.3,0.9c3.7,0.5,6.4,0.7,8.1,0.7c0.4,4.2,1.1,9.3,2.1,15.3c0,0.5-0.5,0.7-1.4,0.7c-0.6,0-1-0.2-1.1-0.7
		c-1.1-4.1-3.4-7.4-7-10.1c-3.6-2.6-7.7-4-12.3-4c-7.1,0-13,2.9-17.8,8.7C32.3,34.4,30,41.5,30,49.9c0,8.2,2.4,15.2,7.1,20.9
		c4.7,5.7,10.5,8.6,17.4,8.6c10.7,0,18.3-5.1,22.8-15.2c0.2-0.5,0.6-0.7,1.2-0.7C79.3,63.5,79.7,63.8,79.7,64.2z"/>
</g>
<ellipse transform="matrix(0.7548 -0.6559 0.6559 0.7548 -30.2175 53.1603)" class="st0" cx="56" cy="67" rx="4" ry="4"/>
</svg>
