<?xml version="1.0" encoding="utf-8"?>
<!-- Generator: Adobe Illustrator 21.0.2, SVG Export Plug-In . SVG Version: 6.00 Build 0)  -->
<svg version="1.1" id="Layer_1" xmlns="http://www.w3.org/2000/svg" xmlns:xlink="http://www.w3.org/1999/xlink" x="0px" y="0px"
	 viewBox="0 0 238 100" style="enable-background:new 0 0 238 100;" xml:space="preserve">
<style type="text/css">
	.st0{opacity:0.95;}
	.st1{fill:#82BF9D;}
	.st2{fill:none;stroke:#82BF9D;stroke-width:0.5;stroke-miterlimit:10;}
	.st3{fill:#FFFFFF;}
	.st4{fill:none;}
</style>
<g class="st0">
	<rect class="st1" width="238" height="100"/>
</g>
<circle class="st1" cx="15.5" cy="16.5" r="1.5"/>
<circle class="st1" cx="110" cy="31" r="2"/>
<circle class="st1" cx="49.5" cy="55.5" r="1.5"/>
<circle class="st1" cx="176.5" cy="55.5" r="1.5"/>
<circle class="st1" cx="109.5" cy="83.5" r="1.5"/>
<circle class="st1" cx="187.5" cy="8.5" r="1.5"/>
<circle class="st1" cx="216.5" cy="34.5" r="1.5"/>
<circle class="st1" cx="220.5" cy="71.5" r="2.5"/>
<circle class="st1" cx="7.5" cy="81.5" r="2.5"/>
<circle class="st1" cx="52.5" cy="17.5" r="1.5"/>
<circle class="st1" cx="72.5" cy="71.5" r="0.5"/>
<circle class="st1" cx="89" cy="37" r="1"/>
<circle class="st1" cx="147.5" cy="8.5" r="0.5"/>
<circle class="st1" cx="138" cy="49" r="2"/>
<circle class="st1" cx="166.5" cy="27.5" r="0.5"/>
<circle class="st1" cx="164.5" cy="71.5" r="0.5"/>
<circle class="st1" cx="104.5" cy="57.5" r="0.5"/>
<circle class="st1" cx="201.5" cy="92.5" r="1.5"/>
<circle class="st1" cx="45.5" cy="90.5" r="0.5"/>
<circle class="st1" cx="19" cy="42" r="1"/>
<circle class="st1" cx="90" cy="3" r="1"/>
<circle class="st1" cx="233.5" cy="-0.5" r="0.5"/>
<circle class="st1" cx="149" cy="98" r="1"/>
<line class="st2" x1="-3" y1="59" x2="138" y2="-5"/>
<line class="st2" x1="2.5" y1="-11.5" x2="166.5" y2="105.5"/>
<line class="st2" x1="151.5" y1="-2.5" x2="261.5" y2="81.5"/>
<line class="st2" x1="249.5" y1="31.5" x2="37.5" y2="-4.5"/>
<line class="st2" x1="62.5" y1="110.5" x2="225.5" y2="-4.5"/>
<line class="st2" x1="260.5" y1="45.5" x2="115.5" y2="108.5"/>
<line class="st2" x1="103.5" y1="109.5" x2="-27.5" y2="52.5"/>
<line class="st2" x1="27.5" y1="-19.5" x2="-12.5" y2="27.5"/>
<line class="st2" x1="32.5" y1="110.5" x2="95.5" y2="-29.5"/>
<line class="st2" x1="104.5" y1="-15.5" x2="253.5" y2="112.5"/>
<line class="st2" x1="174.5" y1="-20.5" x2="31.5" y2="118.5"/>
<line class="st2" x1="-25.5" y1="34.5" x2="272.5" y2="85.5"/>
<line class="st2" x1="-27.5" y1="81.5" x2="71.5" y2="-13.5"/>
<line class="st2" x1="-13.5" y1="-15.5" x2="34.5" y2="113.5"/>
<line class="st2" x1="15.5" y1="110.5" x2="-4.5" y2="97.5"/>
<line class="st2" x1="63.5" y1="-25.5" x2="107.5" y2="111.5"/>
<line class="st2" x1="113.5" y1="111.5" x2="132.5" y2="-35.5"/>
<line class="st2" x1="146.5" y1="-34.5" x2="185.5" y2="109.5"/>
<line class="st2" x1="208.5" y1="108.5" x2="233.5" y2="-9.5"/>
<circle class="st2" cx="156.5" cy="81.5" r="1"/>
<circle class="st2" cx="32.5" cy="68.5" r="1"/>
<circle class="st2" cx="223.5" cy="5.5" r="1"/>
<circle class="st1" cx="118.5" cy="23.5" r="2"/>
<circle class="st2" cx="41.5" cy="32.5" r="1"/>
<circle class="st2" cx="140" cy="36" r="1.5"/>
<circle class="st2" cx="57" cy="84" r="1.5"/>
<circle class="st2" cx="4.5" cy="97.5" r="3"/>
<circle class="st2" cx="195.5" cy="38.5" r="1"/>
<circle class="st2" cx="194.5" cy="77.5" r="2"/>
<circle class="st2" cx="242.5" cy="15.5" r="5"/>
<circle class="st1" cx="101.5" cy="69.5" r="1.5"/>
<circle class="st1" cx="134.5" cy="75.5" r="1.5"/>
<circle class="st1" cx="188" cy="92" r="2"/>
<circle class="st1" cx="186" cy="29" r="2"/>
<circle class="st1" cx="161" cy="10" r="3"/>
<circle class="st1" cx="61" cy="41" r="2"/>
<circle class="st1" cx="75" cy="63" r="3"/>
<circle class="st1" cx="90.5" cy="89.5" r="1.5"/>
<circle class="st1" cx="201.5" cy="52.5" r="1.5"/>
<circle class="st1" cx="19.5" cy="91.5" r="2.5"/>
<circle class="st1" cx="29" cy="49" r="1"/>
<circle class="st1" cx="30.5" cy="12.5" r="2.5"/>
<circle class="st1" cx="70" cy="9" r="1"/>
<circle class="st1" cx="100" cy="11" r="2"/>
<circle class="st1" cx="129" cy="93" r="1"/>
<circle class="st1" cx="143" cy="20" r="1"/>
<circle class="st1" cx="162" cy="61" r="1"/>
<circle class="st1" cx="219.5" cy="9.5" r="1.5"/>
<circle class="st1" cx="235" cy="87" r="2"/>
<g>
	<g>
		<path class="st3" d="M102.7,37.1c0,2.2,0.3,4.2,1,5.9c0.7,1.7,1.6,3.2,2.7,4.4c1.2,1.2,2.5,2.1,4,2.7c1.6,0.6,3.2,1,5.1,1
			c1.1,0,2.1-0.2,3.1-0.7c1-0.4,1.9-1,2.8-1.7c0.9-0.7,1.6-1.4,2.3-2.3c0.7-0.9,1.3-1.7,1.7-2.6l2.2,1.4c-0.7,1.1-1.4,2-2.3,3
			s-1.9,1.8-3,2.5c-1.2,0.7-2.4,1.3-3.8,1.8s-3,0.7-4.8,0.7c-1.7,0-3.3-0.2-4.8-0.6c-1.5-0.4-2.9-1-4.2-1.7
			c-1.3-0.7-2.4-1.6-3.4-2.5s-1.8-2.1-2.5-3.3c-0.7-1.2-1.2-2.5-1.6-3.8s-0.6-2.8-0.6-4.2c0-1.4,0.2-2.9,0.6-4.3s0.9-2.7,1.6-3.8
			c0.7-1.2,1.6-2.3,2.6-3.3c1-1,2.2-1.9,3.4-2.6c1.3-0.7,2.7-1.3,4.2-1.7s3.1-0.6,4.9-0.6c1.7,0,3.1,0.2,4.6,0.7
			c1.4,0.5,2.6,1,3.8,1.8c1.2,0.8,2.2,1.6,3,2.5c0.9,1,1.7,2,2.3,3l-2.2,1.5c-1.3-2.5-2.7-4.4-4.4-5.5c-1.6-1.2-3.4-1.8-5.5-1.8
			c-1.8,0-3.5,0.3-5,1c-1.6,0.7-2.9,1.6-4,2.8c-1.2,1.2-2.1,2.7-2.7,4.4C103.1,32.9,102.7,35,102.7,37.1z"/>
	</g>
	<g>
		<path class="st3" d="M126.7,37.6l-0.2-0.5c-0.1-0.4-0.2-0.6-0.2-0.6l-0.3-0.7c-0.2-0.5-0.4-0.7-0.6-0.7c-0.3,0-0.5,0.3-0.7,0.9
			c-0.1,0-0.2-0.1-0.2-0.2c0-0.3,0.2-0.6,0.5-0.9c0.3-0.3,0.6-0.5,0.8-0.5c0.5,0,1,0.7,1.5,2.1l0.1,0.3l0.1-0.2
			c0.9-1.5,1.7-2.2,2.3-2.2c0.2,0,0.4,0,0.6,0.1l-0.8,0.8c-0.1,0-0.2,0-0.2,0c-0.5,0-1,0.5-1.7,1.6l-0.2,0.3l0.1,0.4
			c0.6,1.6,1,2.3,1.4,2.3c0.3,0,0.6-0.2,0.8-0.7c0.1,0.1,0.2,0.2,0.2,0.2c0,0.2-0.2,0.5-0.5,0.8c-0.3,0.3-0.6,0.5-0.9,0.5
			c-0.5,0-1-0.7-1.5-2.1l-0.2-0.5l-0.2,0.3c-0.9,1.5-1.7,2.3-2.5,2.3c-0.3,0-0.6-0.1-0.8-0.2l0.7-0.7c0.1,0.1,0.3,0.2,0.5,0.2
			c0.5,0,1-0.5,1.6-1.5l0.3-0.5L126.7,37.6z"/>
	</g>
</g>
<polygon class="st4" points="117.9,34.5 120.5,34.5 120.5,34.5 117.9,34.5 "/>
</svg>
