<?xml version="1.0" encoding="utf-8"?>
<!-- Generator: Adobe Illustrator 21.0.2, SVG Export Plug-In . SVG Version: 6.00 Build 0)  -->
<svg version="1.1" id="Layer_1" xmlns="http://www.w3.org/2000/svg" xmlns:xlink="http://www.w3.org/1999/xlink" x="0px" y="0px"
	 viewBox="0 0 100 100" style="enable-background:new 0 0 100 100;" xml:space="preserve">
<style type="text/css">
	.st0{fill:#82BF9D;}
</style>
<g>
	<path class="st0" d="M31.5,50.5c0,4.3,0.6,8.2,1.9,11.6c1.3,3.4,3.1,6.3,5.3,8.6c2.3,2.4,4.9,4.2,8,5.4c3.1,1.2,6.4,1.9,10,1.9
		c2.1,0,4.2-0.4,6.2-1.3c2-0.8,3.8-1.9,5.6-3.3c1.7-1.3,3.2-2.8,4.6-4.5c1.3-1.7,2.5-3.4,3.3-5.1l4.3,2.8c-1.3,2.1-2.7,4-4.5,5.9
		s-3.7,3.6-6,5c-2.3,1.4-4.8,2.6-7.6,3.5c-2.8,0.9-6,1.3-9.5,1.3c-3.4,0-6.5-0.4-9.5-1.2c-3-0.8-5.7-1.9-8.2-3.3
		c-2.5-1.4-4.7-3.1-6.7-5s-3.6-4.1-5-6.5c-1.4-2.4-2.4-4.9-3.1-7.6c-0.7-2.7-1.1-5.5-1.1-8.3s0.4-5.7,1.1-8.4
		c0.7-2.7,1.8-5.3,3.2-7.6c1.4-2.4,3.1-4.6,5.1-6.6c2-2,4.3-3.7,6.8-5.1c2.5-1.4,5.3-2.5,8.3-3.3c3-0.8,6.2-1.2,9.7-1.2
		c3.3,0,6.2,0.4,9,1.3s5.2,2,7.5,3.5c2.3,1.5,4.3,3.1,6,5C78,30,79.5,32,80.8,34l-4.4,3c-2.6-5-5.4-8.6-8.6-10.9
		c-3.2-2.3-6.8-3.5-10.9-3.5c-3.5,0-6.9,0.6-9.9,1.9c-3.1,1.3-5.8,3.1-8,5.5c-2.3,2.4-4.1,5.3-5.4,8.7S31.5,46.2,31.5,50.5z"/>
</g>
<circle class="st0" cx="56.5" cy="62.5" r="4.5"/>
</svg>
