<?xml version="1.0" encoding="utf-8"?>
<!-- Generator: Adobe Illustrator 21.0.2, SVG Export Plug-In . SVG Version: 6.00 Build 0)  -->
<svg version="1.1" id="Layer_1" xmlns="http://www.w3.org/2000/svg" xmlns:xlink="http://www.w3.org/1999/xlink" x="0px" y="0px"
	 viewBox="0 0 100 100" style="enable-background:new 0 0 100 100;" xml:space="preserve">
<style type="text/css">
	.st0{fill:#82BF9D;}
	.st1{fill:none;stroke:#82BF9D;stroke-width:4;stroke-miterlimit:10;}
	.st2{fill:none;}
</style>
<g>
	<path class="st0" d="M28.5,50.5c0,4.3,0.6,8.2,1.9,11.6c1.3,3.4,3.1,6.3,5.3,8.6c2.3,2.4,4.9,4.2,8,5.4c3.1,1.2,6.4,1.9,10,1.9
		c2.1,0,4.2-0.4,6.2-1.3c2-0.8,3.8-1.9,5.6-3.3c1.7-1.3,3.2-2.8,4.6-4.5c1.3-1.7,2.5-3.4,3.3-5.1l4.3,2.8c-1.3,2.1-2.7,4-4.5,5.9
		s-3.7,3.6-6,5s-4.8,2.6-7.6,3.5c-2.8,0.9-6,1.3-9.5,1.3c-3.4,0-6.5-0.4-9.5-1.2c-3-0.8-5.7-1.9-8.2-3.3s-4.7-3.1-6.7-5
		s-3.6-4.1-5-6.5s-2.4-4.9-3.1-7.6c-0.7-2.7-1.1-5.5-1.1-8.3s0.4-5.7,1.1-8.4c0.7-2.7,1.8-5.3,3.2-7.6c1.4-2.4,3.1-4.6,5.1-6.6
		s4.3-3.7,6.8-5.1s5.3-2.5,8.3-3.3s6.2-1.2,9.7-1.2c3.3,0,6.2,0.4,9,1.3c2.8,0.9,5.2,2,7.5,3.5s4.3,3.1,6,5c1.8,2,3.3,4,4.6,6
		l-4.4,3c-2.6-5-5.4-8.6-8.6-10.9s-6.8-3.5-10.9-3.5c-3.5,0-6.9,0.6-9.9,1.9c-3.1,1.3-5.8,3.1-8,5.5c-2.3,2.4-4.1,5.3-5.4,8.7
		S28.5,46.2,28.5,50.5z"/>
</g>
<line class="st1" x1="369.9" y1="170.6" x2="318.1" y2="246.9"/>
<line class="st1" x1="318.1" y1="170.6" x2="369.9" y2="246.9"/>
<line class="st1" x1="318.1" y1="170.6" x2="369.9" y2="246.9"/>
<line class="st1" x1="318.1" y1="170.6" x2="369.9" y2="246.9"/>
<g>
	<path class="st0" d="M76,51.5l-0.4-1c-0.3-0.7-0.4-1.1-0.5-1.2l-0.6-1.4c-0.4-1-0.9-1.5-1.3-1.5c-0.6,0-1.1,0.6-1.4,1.7
		c-0.3-0.1-0.4-0.2-0.4-0.4c0-0.5,0.3-1.1,0.9-1.8s1.2-1,1.6-1c1,0,1.9,1.4,3,4.1l0.3,0.7l0.3-0.5c1.8-2.9,3.3-4.3,4.6-4.3
		c0.3,0,0.7,0.1,1.1,0.3l-1.5,1.6c-0.2-0.1-0.3-0.1-0.4-0.1c-0.9,0-2.1,1.1-3.3,3.2l-0.4,0.6l0.3,0.8c1.1,3.1,2,4.6,2.8,4.6
		c0.7,0,1.2-0.5,1.5-1.4c0.2,0.2,0.4,0.3,0.4,0.5c0,0.4-0.3,0.9-1,1.5c-0.7,0.6-1.3,0.9-1.8,0.9c-1,0-2-1.4-3-4.2l-0.4-0.9L76,52.9
		c-1.7,3-3.4,4.5-5,4.5c-0.6,0-1.1-0.1-1.5-0.4l1.5-1.4c0.3,0.3,0.6,0.4,0.9,0.4c1,0,2-1,3.2-2.9l0.7-1.1L76,51.5z"/>
</g>
<polygon class="st2" points="44.8,47.3 49.9,47.3 49.9,47.3 44.8,47.3 "/>
</svg>
